<?xml version="1.0"?><svg version="1.2" baseProfile="tiny-ps" viewBox="0 0 300 300" xmlns="http://www.w3.org/2000/svg" xmlns:xlink="http://www.w3.org/1999/xlink"><title>florLis</title><g><g fill="#fdfbfc" transform="matrix(.1 0 0 -.1 0 300)"><path d="M0 1500V0h3000v3000H0V1500z"/></g><g fill="#e7d7f0" transform="matrix(.1 0 0 -.1 0 300)"><path d="M0 1500V0h3000v3000H0V1500zm1394 1303c-9-39-17-45-60-47l-39-1-3 19-4 18 11 11c8 8 46 19 94 26l7 1-6-27zm156 23c0-3-4-16-9-29l-10-25-45-4-46-3v17c0 9 3 23 6 32l6 16h49c27 0 49-2 49-4zm142-31c-2-11-9-25-17-30l-13-11-41 4-41 4v14c0 8 8 22 19 33l18 18 39-6 39-7-3-19zm-444-21c-3-31-12-39-60-52l-38-10v58l33 14c17 8 40 15 49 15l18 1-2-26zm585 7 18-7-18-23-19-24-47 7-46 7 6 17c3 9 11 23 16 30l10 13 31-7c17-4 39-10 49-13zm-733-54v-33l-35-17c-20-9-40-17-45-17h-10v61l43 19c23 10 43 19 45 19 1 1 2-14 2-32zm890-6c0-5-9-16-20-26l-19-17-26 6-25 6v21l-10-6-10-6-11 6-11 7 22 23 22 23 44-15c24-8 44-18 44-22zm130-71c0-4-9-15-21-25l-20-19-43 24-44 23 26 24 25 23 38-22c22-12 39-25 39-28zm-1156 24c3-9 6-22 6-29v-13l-36-23-37-22-13 18-13 18 10 18c8 17 54 48 70 49 4 0 10-7 13-16zm-122-89 11-26-34-29c-42-36-47-37-60-3l-10 28 33 27c41 34 46 34 60 3zm1377-3 33-27-26-14-26-14-22 12c-13 7-32 19-42 27l-20 14 20 15c28 21 46 18 83-13zm-680-46c12-13 52-47 89-76 93-73 168-173 176-234 2-11 7-29 11-39l8-19-5-82-6-83-71-167c-71-168-99-248-103-299l-3-29-15-7c-8-4-21-6-27-5-7 1-24 2-36 3l-24 1-7 353c-4 193-11 379-15 412l-7 60-7-15c-6-15-27-560-27-721v-87l-40-4c-23-2-45-1-49 2-5 3-12 25-16 50-9 53-65 210-99 277-13 27-36 82-51 123l-28 75-1 91-1 91 40 79 40 78 75 65c41 35 92 79 114 98 46 39 56 40 85 9zm-800-66c0-3-16-23-36-45l-36-40 6 17 6 18-12-3-12-2-3 22-3 21 28 31 28 30 17-22c10-12 17-24 17-27zm1587 18 35-32-17-13c-10-7-25-13-34-13h-16l-29 30-29 30 20 15c26 20 30 19 70-17zM630 2369l10-17-29-36-28-35-17 18c-21 23-21 30 10 75l26 38 10-13c5-8 13-21 18-30zm1799 2 31-39-32-7-32-8-28 33-27 33 17 13c27 21 38 17 71-25zM550 2237c0-4-7-24-15-43l-15-36-12 5c-7 2-12 9-11 15l3 11-15-5-15-6v13c0 8 10 33 22 56l23 43 17-23c10-12 18-26 18-30zm1964 11 26-43-23-7c-12-3-28-6-34-7l-13-1-20 40c-11 21-20 41-20 44 0 5 25 13 47 15l12 1 25-42zm42-96c10-6 44-75 44-88 0-2-13-4-30-4h-30l-14 23c-8 12-17 32-20 44l-7 21 18 5c10 3 20 5 23 6 3 0 10-3 16-7zm-2072-39 5-13-17-40-17-40-22 15c-27 19-28 30-8 79l15 36 20-12c11-7 22-18 24-25zm549-123 48-21 58-57 57-57 43-85 43-85 23-90 24-90-17-12-16-13h-32c-18 0-39-3-47-6l-15-5-10 29c-5 16-22 48-36 71l-27 42-32 19-32 20h-93l-33-27-32-27-13-33c-8-18-14-48-14-68v-35h-30c-42 0-89 21-133 59l-36 32-26 55-26 55-1 67-1 67 26 57 27 56 44 39 45 40 48 16 48 17 60-4 60-5 48-21zm1181 1 43-18 41-44 42-43 21-56 21-55-5-65-4-65-21-41c-11-22-39-58-61-80l-40-41-48-15-47-15-18 5-18 4v79l-14 34-15 35-33 20-33 20h-92l-35-27-36-28-26-46c-14-26-26-55-26-64v-17l-27 6c-16 2-45 7-66 11l-38 6 7 37c14 86 36 153 72 227l40 80 37 43c21 23 56 57 78 74l40 32 51 18 51 19 58-6 59-5 42-19zm404 12c6-10 13-33 17-50l7-33h-24c-34 0-45 11-56 52l-10 37 16 4c32 9 41 7 50-10zm-2197-14 20-10-6-32c-4-18-9-40-11-49l-5-18-30 16-30 15 5 17c3 9 8 29 12 45 7 30 15 33 45 16zm2208-120 31-11v-88h-17c-10 0-23 4-30 8l-11 7-7 48c-4 26-5 47-3 47 3 0 19-5 37-11zm-2230-33 10-11-6-43-6-42h-13c-16 0-44 28-44 44 0 8 3 27 6 44l6 30 19-5c10-3 23-10 28-17zm2264-126 8-7-3-46-3-46-25 12-25 12-3 49-3 48 23-7c13-4 27-11 31-15zm-2275-22 12-10v-88l-27 6c-37 9-43 21-40 71l2 43 20-6c11-4 26-11 33-16zm2270-171 3-57-18 7c-10 3-24 10-30 16l-13 9v96l28-7 27-7 3-57zm-2259 19c5-6 11-28 13-48l4-38h-27c-33 0-37 6-45 63l-6 45 25-5c15-3 30-10 36-17zm1238-96c117-9 189-25 212-46l13-12-22-12c-13-7-57-18-99-26l-76-13h-155l-155-1-89 15-88 14-14 12c-8 6-14 15-14 20 0 15 109 41 204 49 133 11 159 11 283 0zm1001-33c2-8-2-34-8-56l-11-41-24 17-24 18-1 22c0 12 4 33 10 47l9 26 23-9 23-8 3-16zm-2197-49 10-41-9-9-10-10-20 6-20 7-10 27c-6 15-13 36-16 47l-6 21 35-4 35-4 11-40zm873-78 8-8-16-54-15-54-31-42c-17-24-44-51-60-61l-29-17-36 2c-62 5-119 52-129 107l-4 25 28-11 28-11 41 13 41 12 25 27c14 15 31 41 37 59l12 32 45-6c25-3 50-9 55-13zm484-8 3-22 32-34 32-34 38-10 37-10 30 8 30 9v-15c0-38-43-87-97-110l-32-14-30 6-30 6-35 34-34 33-26 54c-15 30-28 67-29 83l-2 29 45 6c59 8 64 6 68-19zm786 12c20-19 20-25-1-69-19-39-21-40-45-22l-17 13 2 15c4 25 29 79 37 79 5 0 16-7 24-16zm-1110-26c3-13 6-55 6-94s3-92 6-118l7-46h8c13 0 19 34 27 160l7 115 53 3 52 3v-22c0-37 23-101 58-163l33-60-12-27c-6-16-38-56-71-89l-61-61-38-20c-50-25-53-25-113 15-55 37-105 87-142 142l-24 35 19 27c25 36 67 138 75 185l7 37h97l6-22zm-984-38c11-21 20-42 20-45s-16-5-35-5h-34l-9 18c-5 9-12 29-16 45l-6 27h60l20-40zm2030-137c-13-21-25-40-27-42-2-3-13 6-25 19l-21 23 23 44 23 44 25-25 25-24-23-39zm-1972 20c10-16 22-34 26-41l7-12-23-9c-32-12-46-4-68 40l-20 38 18 4c34 9 41 7 60-20zm1904-101 5-19-24-32c-29-37-36-38-53-6l-13 24 24 35 23 34 17-8c9-5 19-18 21-28zM643 967l25-33-19-12c-29-19-42-14-72 25l-27 37 12 8c7 4 23 8 34 8h22l25-33zm1717-88v-15l-34-33-33-32-13 31-13 31 33 34 33 34 13-17c7-9 14-24 14-33zM743 861l27-30-22-15c-31-22-36-21-69 16l-28 33 11 12c6 7 20 13 32 13h21l28-29zm1507-82v-17l-27-18c-16-10-32-17-36-16l-8 2 5-9 6-10-9-6-10-6-7 38-7 37 18 11c10 5 25 17 34 26l16 16 13-15c6-9 12-23 12-33zM854 765l30-24-24-19-25-20-44 30-44 31 24 13c34 19 50 17 83-11zm1276-71v-20l-39-22c-48-27-48-27-54 4l-5 26 12 9c6 6 25 18 41 28l30 18 7-11c4-6 8-20 8-32zm-1161-1c33-19 38-32 19-51-17-17-36-15-75 9l-34 21 17 19c21 24 34 24 73 2zm811-43 15-10-15-10c-8-5-31-13-50-16-19-4-50-13-68-22l-33-15-14 19c-21 27-19 33 18 49l32 14h50l50 1 15-10zm216-15c8-31 11-27-48-53l-48-21v69l33 14c17 8 38 15 44 15l13 1 6-25zm-856-26c0-5-10-17-21-28l-22-20-18 9c-10 6-30 15-46 21l-28 11 27 23 27 24 41-16c22-9 40-20 40-24zm343 13 21-21-25-9-24-9-57 5c-32 2-58 6-58 8 0 1 5 15 10 30l10 27 51-5 51-5 21-21zm-193-10v-28l-41-39-40-40-20 23-19 24 10 19c12 21 79 69 97 69h13v-28zm556-32c-1-16-4-31-7-34-5-5-107-56-112-56-2 0-1 17 2 37l6 38 45 22c25 12 50 22 57 22l11 1-2-30zm-263-5 18-25-28-25c-27-24-81-45-115-45h-16l-5 13c-2 6-2 20 1 30l4 17h18c9 0 35 13 56 29s41 30 44 30 13-11 23-24zm-204-31 32-7-7-21c-3-11-9-24-13-28l-7-8-57 17-57 16 16 18 17 19h22c13 0 37-3 54-6zm302-31-7-28-50-3-49-2 29 22c26 20 54 34 78 37l6 1-7-27zm192-73c-7-40-16-44-51-26l-29 15 5 27 5 26 31 13 31 13 7-19 7-19-6-30zm-677 20h14v-17c0-10 9-32 19-49l19-32-26-5c-14-3-31-3-38 0-22 8-38 68-35 128l1 19 16-22c8-12 22-22 30-22zm193-26 14-4-18-20-18-20h-70l-19 17c-24 21-23 31 5 35 25 3 85-1 106-8zm340-8 23-13-35-21-36-20-23 5c-13 4-38 16-56 29l-34 22 19 5c10 3 41 5 68 5l50 1 24-13zm-166-49c20-11 37-23 37-27 0-3-13-13-29-23l-28-16-19 14c-10 8-41 22-68 31l-48 16 28 19 29 19 30-6c17-3 47-16 68-27zm-419-76-13-15-19 17c-10 9-27 17-37 17h-19l28 29 29 30 22-32 22-32-13-14zm661 69c26-10 72-47 64-53-2-2-15-10-29-19l-26-16-40 38-40 37 15 11c20 14 24 14 56 2zm-457-45c6-5-22-45-35-49l-13-5-42 18-43 19 38 7 37 7v18l28-6c15-4 28-8 30-9zm371-14 21-29-16-6c-21-8-98-8-119 0l-16 7 27 28 28 29h55l20-29zm-263 9 28-11-30-18c-16-10-41-21-55-24l-26-7 15 35 16 35h12c7 0 25-5 40-10zm-379-53 23-12-19-12-19-12-21 15-21 15 5 10c8 12 25 11 52-4zm831-19c-2-6-12-16-21-22l-16-11-12 12-11 11 6 11 7 11h51l-4-12zm-895-80c-8-14-20-8-37 17l-17 26 6 9 6 10 24-28c13-15 21-30 18-34zm947 2c-22-31-40-39-40-18 0 17 31 48 47 48h14l-21-30zM784 1845l7-34-31-16c-39-20-38-31 5-39l35-7v-22c0-12 4-28 9-35l8-13 10 13c5 7 13 21 17 32l6 19 35-6 35-6v13c0 7-9 21-20 31l-19 17 15 30 15 29-6 9-6 10-25-17-25-16-24 13c-14 7-25 17-25 22 0 4-5 8-11 8h-11l6-35zm1408 13-21-22-35 16c-19 9-36 14-39 12-3-3 1-21 9-40l14-34-20-22c-11-12-20-25-20-29v-8l34 4 34 5 21-32 20-33 5 15c3 8 6 24 8 35l3 20 38 9c45 12 47 20 6 36l-31 13 5 39 5 38h-7c-3 0-16-10-29-22zm-942-449c-30-5-59-14-64-19l-9-9 44-12 44-13 240 1 240 1 34 9c19 5 36 13 38 19l4 11-76 12-76 11-182-1-182-1-55-9z"/></g><g fill="#c1adcc" transform="matrix(.1 0 0 -.1 0 300)"><path d="M0 1500V0h3000v3000H0V1500zm1396 1298c-7-37-20-48-58-48-14 0-33-2-40-5l-14-6 4 36 4 35 27 6c14 3 31 7 36 9 6 2 18 4 29 4l19 1-7-32zm149 5c-3-16-10-32-14-36l-8-8-50 3-50 3 14 33 13 32h102l-7-27zm157 8 7-6-22-28-22-27-46 8-46 7 14 34 14 33 47-7c26-4 50-10 54-14zm-452-28c0-40-11-51-61-66l-46-14-1 16c0 9 1 26 4 38l4 22 48 15c26 8 48 15 50 15 1 1 2-11 2-26zm573 6 37-10-17-24c-24-33-32-35-85-23l-45 11 16 28 16 29h20c11 0 37-5 58-11zm-718-61v-32l-40-23c-22-12-43-23-46-23-9 0-18 51-12 66 4 11 65 41 88 43l11 1-1-32zm853 14 41-18-25-27-24-27-43 17c-54 21-52 18-33 48 20 30 31 31 84 7zm-986-72c3-16 2-33-1-38-9-13-82-55-86-50-3 2-8 18-11 35l-6 31 43 26c24 14 47 26 50 26 4 0 9-13 11-30zm1115 8c21-12 40-23 42-25 7-5-37-43-49-43-6 0-29 9-51 21l-41 20 23 25c27 29 29 29 76 2zm-1242-90 8-32-39-34-39-33-15 32-15 31 39 34c22 19 43 34 47 34s11-14 14-32zm1367 6c21-15 38-30 38-34s-11-15-25-24l-25-16-40 26c-46 30-46 31-23 56 21 24 30 23 75-8zm-634-86c42-35 100-87 129-116l52-53 26-54c14-31 31-80 37-111l11-55-12-68-12-68-50-114c-70-159-97-234-112-309l-14-65-28-3c-15-2-37-1-50 2l-22 6-8 317c-4 175-11 359-14 408l-7 90-8-36-7-35-7-375-7-374-51-3-51-3-13 63c-14 75-36 135-105 293-29 66-58 144-65 174l-12 53 4 74 5 73 32 65 32 65 81 73c151 137 163 147 166 148 1 0 37-28 80-62zm-838-41c0-12-60-77-71-77-4 0-12 14-19 31l-13 30 38 39 38 39 14-26c7-14 13-30 13-36zm1596 22 29-30-19-15c-29-21-47-17-83 18l-32 31 17 13c9 7 26 14 38 14h20l30-31zM640 2358c0-7-13-30-29-51l-29-37-16 25c-22 33-20 46 11 87l28 35 17-23c10-12 18-28 18-36zm1794 15 26-38-30-14-30-15-34 40-35 39 17 13c9 6 25 12 37 12h22l27-37zM539 2196c-13-25-27-46-31-46-3 0-16 12-27 27l-21 26 13 21c8 12 20 32 26 45l13 24 26-26 25-26-24-45zm1977 54c15-22 25-43 22-45-2-3-18-8-35-11l-31-6-27 42-27 43 14 8c7 5 23 9 35 9h23l26-40zM489 2101c0-9-8-33-17-54l-17-37-27 25-27 25 10 28c5 15 14 37 20 48l11 22 24-21 24-21-1-15zm2091 19c11-21 20-44 20-50v-10h-71l-18 43-18 42 11 7c6 4 21 8 33 8h23l20-40zm-1538-129c93-47 184-162 236-299 28-73 59-199 51-206-2-2-32-6-65-10l-61-7-26 53-26 53-34 33-35 34-39 5-40 5-37-17-37-18-17-26-17-25-5-56-5-55-39 2-38 3-45 22-45 23-38 53-38 53-12 50-12 51 5 45 5 46 33 66 34 66 49 33c26 17 62 36 80 42l31 9 70-2 70-3 47-23zm1154 12 49-17 50-51 50-51 19-53 19-52-5-72-5-72-18-35c-38-77-114-133-194-146l-41-7v84l-14 32c-7 18-26 43-41 57l-27 25h-105l-36-27-36-28-28-60-28-59-60 6c-33 3-62 7-64 10-9 7 18 140 39 196 11 30 42 90 68 133l47 79 59 47 59 47 41 15 41 14 56 1 55 1 50-17zm430-13c6-14 14-37 18-52l6-28h-27c-16 0-33 4-39 8-12 8-34 66-34 89v14l32-3 33-3 11-25zm-2211 4 25-16v-17c0-9-5-33-11-54l-10-38-30 21c-32 24-33 29-18 83 11 42 11 42 44 21zm2233-126c5-7 13-35 17-61l7-48-28 7c-40 9-46 17-54 69l-7 45h55l10-12zm-2263-20 25-11v-31c0-17-3-41-6-53l-6-21-29 10-29 10v47c0 41 5 61 16 61 2 0 15-5 29-12zm2285-149c4-14 5-39 2-57l-4-33-22 7c-11 4-27 11-33 16l-13 10v95l32-6 32-7 6-25zm-2296 1 26-10v-100h-9c-5 0-21 4-35 10l-26 10v100h9c5 0 21-4 35-10zm2284-134 13-13-7-50-6-51-26 14c-34 18-38 26-34 79l4 46 22-7c11-3 27-12 34-18zm-2257-25c4-3 10-27 13-52l7-46-33 5c-41 6-48 16-48 70v42l28-6c15-4 30-9 33-13zm1289-101c47-6 104-17 128-26l43-16-4-12c-2-6-15-17-30-24l-27-13-107-14c-140-19-246-19-384 1l-112 15-29 15-29 15 10 13c38 45 336 70 541 46zm946-22 12-9-10-42c-5-23-13-46-17-50l-8-8-26 23-26 23 11 47 11 47 21-11c12-6 26-15 32-20zm-2209-20c6-7 13-25 17-40 3-14 9-33 12-42l6-16h-72l-9 23c-5 12-12 37-16 55l-7 32h60l9-12zm2173-142c0-11-10-37-21-56l-21-34-24 27-23 28 21 43 21 44 24-15 23-15v-22zm-1271 28c8-7-40-127-69-168l-31-46-31-16-31-16-39 5c-21 3-50 13-64 22-28 18-64 72-64 96v16l53-5 52-4 34 24c31 22 53 52 65 91l5 17 58-6c32-4 60-8 62-10zm476-14 6-29 35-30c19-17 46-34 60-37l25-6 39 6c45 7 45 7 26-37l-13-33-31-26c-18-15-45-29-62-33l-30-7-35 12-35 11-35 41-35 41-20 54c-11 30-20 62-20 73v19l33 4c17 2 44 5 59 5l26 2 7-30zm-322-125 7-129 9-9 9-9 6 53c3 30 8 93 12 142l6 87h104l17-69 18-69 34-57 35-57-29-41c-40-57-106-119-163-152l-48-27-37 23c-76 46-193 165-193 197 0 7 11 29 24 49 13 19 37 73 52 120l27 84 51-3 51-3 8-130zM466 1262c7-4 19-25 28-46l16-40-12-8c-7-4-23-8-34-8h-21l-21 48-21 47 22 7c31 9 31 9 43 0zm2065-160c-7-15-19-37-27-50l-15-23-20 25c-24 31-24 39 3 85l21 37 25-23 25-23-12-28zm-1968-14 25-43-21-7c-12-3-29-6-37-7l-15-1-27 44c-16 24-28 45-28 48 0 2 17 5 39 6l39 3 25-43zm1880-64 18-24-6-18c-3-9-17-30-31-46l-26-29-9 14c-5 8-14 21-19 29l-8 16 26 41c15 23 29 42 32 42s13-11 23-25zM643 972l28-37-17-12c-10-7-26-13-35-13h-17l-32 43-31 42 23 7c13 3 30 6 38 7h15l28-37zm1689-135-37-38-12 18c-7 9-13 25-13 36v19l32 34 32 34 17-32 18-33-37-38zM742 863l37-36-26-14c-14-7-31-13-37-13-13 0-83 68-75 73 6 4 53 25 59 26 2 1 21-15 42-36zm1511-98c-2-5-21-23-41-38l-37-28-13 32-13 32 43 38 43 37 11-32c6-17 9-35 7-41zm-1401 6 38-28-23-21c-13-12-27-22-31-22s-25 14-47 32l-40 32 23 18c30 23 36 22 80-11zm1272-47c3-9 6-24 6-34v-19l-42-25-43-26-7 23c-3 12-6 27-7 34l-1 12 37 26c44 29 49 30 57 9zM991 644l-29-24-46 26c-25 14-46 27-46 29s14 12 31 23l31 19 44-24 44-25-29-24zm796 4 15-15-41-17c-23-9-50-16-62-16-11 0-30-7-43-15l-24-16-21 27-22 27 8 8c5 5 26 15 48 24l40 15 44-4 43-4 15-14zm213-13v-36l-46-19c-25-11-50-20-55-20h-9l4 23c3 12 5 28 5 34l1 13 38 19c20 11 43 20 50 21h12v-35zm-528-1c32-16 35-26 13-44l-14-12-71 9-70 8 20 34 21 33 37-7c20-4 49-13 64-21zm-358-3 39-17-24-28-24-28-45 18c-58 22-57 20-30 49s32 29 84 6zm179-18-6-36-40-40-40-40-18 24c-10 13-19 29-19 35 0 21 89 93 117 94h12l-6-37zm553-59-6-15-56-26c-30-14-58-23-61-19-3 3-3 20 1 39l6 34 58 26 57 26 3-25c2-14 1-32-2-40zm-276-35-32-27-30-6c-17-3-41-6-54-6h-24v16c0 8 5 24 10 35l11 19h18c9 0 35 13 56 29l39 29 19-31 19-31-32-27zm-193 31h36l-7-32c-3-17-8-34-11-36-7-8-114 18-121 29l-6 10 24 19 23 19 13-4c8-3 30-5 49-5zm313-16c0-8-4-24-10-34l-9-18-26-6c-14-4-36-4-50 0l-24 6 28 24c26 22 65 42 84 43 4 1 7-6 7-15zm184-40c10-26 7-59-8-79l-13-19-32 13-31 13v59l33 14c41 18 44 18 51-1zm-686-25 32-30v-16c0-9 7-24 16-34l16-18-7-10-6-11h-66l-12 27c-7 15-15 49-18 75l-6 48h9c5 0 24-14 42-31zm214-37 10-10-27-18-28-18-36 3-36 2-12 17c-7 9-13 22-13 30v15l66-6 66-5 10-10zm337-6 23-13-37-21c-45-27-70-28-102-2-14 11-35 20-47 20l-21 1 19 14 20 15h60l61-1 24-13zm-189-38 45-23v-29l-27-15-27-15-18 16c-10 8-36 21-58 28s-44 15-49 18l-9 5 24 18 24 19h51l44-22zm-408-43 17-34-14-11-13-11-36 18c-20 9-36 20-36 24 0 8 49 49 59 49 3 0 14-16 23-35zm709-5 44-39-23-1c-13 0-32-5-43-11l-20-10-39 37-39 38 10 13 11 13h55l44-40zm-501-17c0-20-28-53-46-53-19 0-84 32-84 42 0 4 10 8 23 8 12 0 29 5 37 10s27 10 43 10h27v-17zm93 6c20-5 37-14 37-18 0-13-47-41-80-48l-30-5v10c0 6 5 14 10 17 6 3 10 17 10 31 0 27 1 28 53 13zm278-11c24-30 24-33-6-46-33-15-63-15-104-1l-32 11 33 29 33 28 28 1h29l19-22zm-633-50 12-12-17-18-16-18-24 22c-13 12-23 25-23 30v8h56l12-12zm821-7 15-10-25-20c-29-25-33-25-50-5l-13 16 19 14c22 16 34 17 54 5zm-884-41c10-11 16-20 13-20s-13 9-23 20-16 20-13 20 13-9 23-20zm-26-14 23-24-9-16-9-16-28 29-28 29 6 11c11 16 20 14 45-13zm958-45-25-30-12 14-12 14 29 25 28 25 9-9 9-9-26-30zM787 1837l5-34-31-13-31-12 6-9c3-5 18-9 34-9h29l7-35c7-41 17-44 32-10l12 25h35c41 0 43 6 13 31l-21 19 11 26c7 14 12 29 12 35v10l-31-17-31-16-22 21c-30 29-36 26-29-12zm1403 18-23-24-29 15c-37 19-44 13-25-23l15-28-26-29-27-28 38 4 38 4 16-29 15-29 8 8c5 5 10 20 12 34l3 25 33 3 32 3v10c0 6-13 15-29 20l-29 10 5 40c3 21 4 39 1 39-2 0-15-11-28-25zm-883-446c-60-4-112-10-115-14l-6-6 14-9c27-17 136-22 356-18l219 4 24 11 24 10-11 7c-15 9-240 26-327 24-38 0-119-4-178-9z"/></g><g fill="#937ca0" transform="matrix(.1 0 0 -.1 0 300)"><path d="M0 1500V0h3000v3000H0V1500zm1560 1335c0-3-7-21-14-40l-15-35h-110l9 30c5 16 11 34 15 40l6 10h55c30 0 54-2 54-5zm-161-37c-12-42-15-44-73-53l-49-7 7 17c3 9 6 25 6 36v20l23 9c12 5 39 9 59 9l37 1-10-32zm307 19c3-3-2-20-11-37l-17-33-50 6c-28 4-53 8-55 11-3 2 3 19 12 36l17 32 49-4c27-3 52-8 55-11zm-454-43-4-36-32-13c-17-7-41-16-53-19l-23-7v69l13 10c11 10 69 29 92 31l11 1-4-36zm563 20c17-4 33-9 38-11l7-4-20-30-21-29-17 1c-9 0-34 6-55 12l-37 12 20 33 20 33 18-5c9-3 31-8 47-12zm-705-64v-39l-27-14c-16-8-38-17-50-21l-21-7-7 32-7 31 11 11c9 9 80 42 99 46 1 1 2-17 2-39zm850 14c22-9 40-19 40-23s-11-18-24-30l-24-22-51 17-51 16 7 12c14 24 37 46 49 46 8 0 32-7 54-16zm-990-114c-5-8-27-25-48-37l-40-23-7 41c-4 22-5 42-3 43 1 2 23 15 48 29l45 27 7-32 6-32-8-16zm1127 44 43-25-29-25-30-25-50 26-51 25 22 25c27 31 41 31 95-1zM849 2565l1-20-36-29-37-29-13 18c-8 10-14 29-14 41v22l43 32 42 31 7-23c3-13 6-32 7-43zm1376 22 37-33-34-18-35-19-39 29c-22 15-41 29-43 31-8 5 44 42 60 43 9 0 33-15 54-33zm-525-187 66-65 22-47c66-143 57-225-54-487l-66-154-16-79-17-79-54 3-54 3-3 210c-1 116-6 293-10 395l-7 185-8-35-8-35-7-362-7-363h-107l-5 28c-16 82-51 185-99 294-30 68-62 150-72 183l-18 60 1 65v65l21 58 21 57 37 51 37 50 71 57c39 30 86 70 105 88l34 33 66-57c36-31 95-86 131-122zm-960 70c0-8-16-31-37-52l-36-37-14 26c-7 14-13 32-13 40v16l37 34 36 35 13-24c7-12 13-30 14-38zm1595 20c21-22 37-41 34-43-2-2-17-8-33-15l-28-13-17 13c-9 6-28 23-43 37l-28 24 28 18c38 25 43 24 87-21zM640 2362c0-14-49-92-59-92-4 0-15 14-24 30l-18 30 7 13c4 6 19 27 33 44l26 33 17-23c10-12 18-28 18-35zm1789 21c36-44 35-53-4-66l-29-10-38 44-38 44 33 12c45 16 42 17 76-24zM559 2235c0-5-10-29-22-53l-23-43-28 30-28 29 28 51 29 52 22-28c13-15 23-32 22-38zm1926 59 16-6 25-49 24-49h-42l-43 1-26 43-26 43 26 10c14 6 27 11 28 12s9-2 18-5zM490 2108c0-10-7-36-16-58l-16-40-29 21c-34 24-35 30-9 87l20 43 24-18 25-18 1-17zm2099 3c11-27 21-51 21-53 0-5-81-1-83 3-10 16-37 82-37 89v10h78l21-49zm-1551-116 52-24 53-53c28-30 67-79 86-111 40-68 87-202 97-273l6-50-66-10-66-10-29 62-29 61-37 29-37 28h-99l-36-37-37-36-4-62-5-61-43 6c-86 11-151 60-195 146l-24 45-3 70-4 70 22 50c42 97 106 156 198 181l47 14 50-6 50-5 53-24zm1175 2 52-24 34-34 34-34 23-50c12-27 26-71 29-97l7-46-17-58-17-58-29-43-30-43-43-25-44-26-51-6-51-6 6 31 6 30-11 35c-7 20-21 47-32 61l-20 26-37 10-38 10-35-10-35-10-31-32c-18-18-42-55-53-82l-22-48-66 7c-37 4-68 8-70 10-1 1 5 38 14 81 46 223 175 399 329 448l50 16 48-5 49-4 51-24zm-1807 11c8-7 21-19 29-25l13-13-9-37c-6-21-12-44-14-51l-5-13-30 16-30 16v21c0 22 21 98 27 98 2 0 11-6 19-12zm2223-10c5-13 12-38 16-55l7-33h-29c-40 0-51 10-67 63l-14 47h78l9-22zm32-148c4-14 7-40 8-59l1-33-27 7c-39 9-50 23-57 76l-7 46 38-6 37-6 7-25zm-2251-65c0-30-2-55-5-55s-21 7-41 15l-34 14 6 43c3 24 7 49 10 56l4 13 30-16 30-16v-54zm2258-70 13-12-3-51-3-52-35 17-35 18-3 53-3 53 28-7c15-4 34-12 41-19zm-2266-77c3-29 5-54 4-55s-19 2-39 8l-37 10v118l33-14 32-13 7-54zm2262-69 8-7-6-56-7-56-29 15c-39 20-42 27-34 84l6 49 27-11c14-6 30-14 35-18zm-2263-26c4-5 11-29 17-55l10-48h-27c-15 0-34 6-43 13l-16 12-5 52-6 51 31-9c18-5 35-12 39-16zm1313-104c42-5 92-17 112-25l35-15-3-17-3-17-70-19-70-19-205-1h-205l-60 13c-60 13-105 34-105 50 0 15 74 42 140 50 36 5 131 9 212 10l147 1 75-11zm900 0c14-7 28-19 31-27l6-15-16-48-16-49-30 23-30 22 6 35c8 44 15 70 20 70 2 0 15-5 29-11zm-2189-37c9-6 35-77 35-96 0-3-16-6-36-6h-35l-15 35c-7 19-14 44-14 55v20h28c15 0 32-4 37-8zm2161-191-27-52-26 31-26 31 23 50 24 50 29-29 29-29-26-52zm-1258 74c9-8-28-116-53-155-13-20-38-49-56-64l-33-28-53 4-53 5-31 29c-27 25-59 79-59 99 0 4 21 3 46-1l45-6 40 17 39 18 20 32c11 18 20 40 20 50v18l62-7c34-3 64-8 66-11zm477-7c4-13 18-37 31-55l25-32 42-12 41-11 33 10 33 10v-17c0-27-41-82-79-108l-34-23h-70l-32 20-32 20-26 39c-21 32-67 145-67 165 0 6 43 13 92 15l37 1 6-22zm-366 2h38l7-121c4-66 10-128 14-137l7-17 7 45c3 25 7 81 7 125 1 44 5 85 9 91l7 11 51 5 52 5 12-55 12-55 39-75 39-76-23-35c-35-52-113-127-166-158l-45-26-45 24c-58 31-150 117-175 163l-19 35 36 68c19 37 41 91 47 118l16 64 4 13 16-6c9-3 33-6 53-6zm-942-60c12-25 22-47 22-50 1-3-17-6-39-8l-41-3-19 43c-11 24-20 48-20 54v11l37-1 38-1 22-45zm2043-98c0-12-29-69-47-91-1-2-12 4-23 14l-20 18v19c0 10 9 37 21 59l20 41 25-23c13-12 24-29 24-37zm-1980-28c18-25 30-48 27-50-2-3-20-7-39-10l-35-6-26 45c-15 25-27 48-27 51 0 2 12 7 28 9 15 2 30 5 34 6 4 0 21-20 38-45zm1900-104c0-8-15-32-33-53l-32-38-18 34-19 34 33 46 33 47 18-28c10-15 18-34 18-42zM649 969c18-22 31-42 30-43-2-2-19-8-36-14l-32-11-36 41c-19 23-35 45-35 49 0 7 26 15 61 18l16 1 32-41zm1721-94c0-6-18-28-39-49l-39-38-17 37-18 36 38 39 39 40 18-28c10-15 18-32 18-37zM745 863l44-37-37-17-37-17-42 41-43 41 28 12c39 18 39 18 87-23zm1479-130c-21-18-42-33-47-33-4 0-12 12-18 26l-10 27 6 16c3 9 22 28 43 43l37 26 14-36 14-35-39-34zM858 771l42-29-29-21c-38-27-40-27-89 11l-42 32 28 18c35 23 39 23 90-11zm1277-93c-6-14-85-61-92-54-2 2-6 19-9 37l-5 34 43 27 43 28 12-30c7-16 10-35 8-42zM975 698c25-12 45-25 45-28 0-4-11-17-25-30l-25-23-40 18c-22 10-45 24-50 31l-11 12 27 21c15 12 28 21 30 21s24-10 49-22zm1023-103c-2-2-27-13-55-24l-53-21v33c0 43 7 51 60 74l45 19 3-39c2-21 2-40 0-42zm-223 63c14-6 25-15 25-19 0-12-67-39-94-39-12 0-32-7-45-16l-23-17-26 27-26 26 12 12c33 33 130 48 177 26zm-300-22c14-9 25-22 25-30v-13l-23-10-23-11-59 10c-33 5-61 11-63 13s4 18 13 35l17 32 44-5 44-5 25-16zm-374 3c19-7 38-15 42-19l9-8-17-26-17-26h-17c-9 0-35 9-59 20l-43 19 23 26c24 28 31 30 79 14zm193-26-6-38-40-40-39-40-20 24-20 24 3 21 3 20 43 33 44 33h39l-7-37zm558-34-4-41-52-24c-28-13-58-24-66-24h-16l4 35 4 34 13 11c12 10 101 48 115 50 3 0 4-18 2-41zm-265 0 21-32-26-22c-15-12-37-27-49-34l-22-11h-81v23c0 31 10 43 42 51 15 3 40 17 55 31 15 13 30 24 33 25 3 0 15-14 27-31zm-169-34c1-1-3-17-9-35l-12-32-42 5c-23 4-54 11-70 17l-28 11 23 24 23 25 56-6c31-4 57-8 59-9zm272-19v-25l-16-15-15-16h-32c-18 0-38 4-45 8l-12 8 32 25c29 21 58 35 81 38 4 1 7-10 7-23zm190-67v-35l-12-17-13-17-38 17-37 17 5 14c3 8 5 21 5 30v17l38 16 37 15 7-10c4-6 8-27 8-47zm-696 19 36-32v-16c0-10 9-29 20-42l19-25-6-7c-3-3-24-6-45-6h-39l-15 35-14 34v46c0 25 2 45 4 45s20-14 40-32zm223-42 6-6-23-25-23-25-41 6-41 6-17 20c-10 11-18 25-18 30v11l75-5c42-3 78-8 82-12zm312 0c19-7 36-17 38-22l3-10-38-17c-21-9-46-17-56-17-13 0-65 23-105 48-15 9 53 30 99 30 14 0 40-5 59-12zm-161-48 42-20v-13c0-8-12-23-26-34l-26-21-27 19c-14 10-44 24-66 31s-44 15-48 17l-8 5 33 23 33 23 25-5c14-3 44-14 68-25zm-414-43 20-36-17-16-16-17-20 18c-10 9-28 18-40 19-27 2-27 5 6 39 35 36 45 35 67-7zm712-2 37-37-27-7c-15-4-33-12-40-18l-13-11-45 45-46 45 17 10c9 5 30 10 48 10h32l37-37zm-130-31 17-25-19-14-18-13h-37c-21 0-50 5-65 10l-26 10 32 33 32 33 33-4 34-4 17-26zm-376 12c0-8-5-24-10-35l-11-19h-24c-28 0-95 30-95 42 0 4 10 8 23 8 12 0 29 5 37 10s30 10 48 10h32v-16zm101 4c22-6 39-14 39-18 0-3-17-16-39-28l-39-22h-53l15 22c9 12 16 30 16 40v18h11c7 0 29-5 50-12zm-378-49c32-17 32-17 13-38l-18-20-29 21c-33 25-36 35-11 41 9 3 18 5 20 6 2 0 13-4 25-10zm842-20 7-10-18-20c-21-23-37-24-54-4l-12 15 12 15 12 15h24c12 0 26-5 29-11zm-895-34c13-14 21-25 18-25-2 0-15 11-28 25s-21 25-18 25c2 0 15-11 28-25zm-20-19 23-25-6-15c-9-24-23-19-47 14l-21 30 6 10c10 15 19 12 45-14zm940 17c0-5-13-17-28-27l-27-19 24 26c26 28 31 32 31 20zm40-23 15-9-30-31c-33-34-40-36-49-13l-7 16 22 24c25 26 28 27 49 13zM790 1837v-37l-25-12c-34-15-31-26 8-30l32-3 5-35 6-35 17 33 18 33 37-7 37-7-27 29-26 29 14 28c17 31 15 32-21 15l-25-11-25 23-25 23v-36zm1403 11-22-22-27 13c-33 15-38 10-23-23l12-26-24-26-24-27 36 7 36 6 13-30 13-31 8 13c5 7 9 23 9 36v22h60v10c0 6-12 16-26 22l-25 12 6 33c7 39 6 40-22 11zm-845-439-127-7-17-10-18-10 49-9 50-8h450l38 8 38 8-6 9-5 8-83 6c-170 11-246 12-369 5z"/></g><g fill="#644a73" transform="matrix(.1 0 0 -.1 0 300)"><path d="M0 1500V0h3000v3000H0V1500zm1401 1292-11-39-46-7c-26-3-52-6-59-6h-13l8 36c5 19 11 38 13 41 6 5 109 21 115 17 2-1-1-20-7-42zm157 21c-7-16-16-33-20-40l-9-11-54-4-55-3v8c0 4 7 23 14 42l15 35h121l-12-27zm139 11 21-6-20-34-20-34h-52c-29 0-55 3-59 6-3 3 2 21 10 40l17 34h40c23 0 51-3 63-6zm-441-30c-3-9-6-26-6-39v-24l-52-16c-28-8-53-15-55-15s-3 19-1 42l3 42 40 12c22 7 48 13 59 13l18 1-6-16zm555 5c19-6 40-13 47-15l13-4-22-30-23-30-25 1c-14 0-43 6-63 12l-38 12 26 33c28 35 35 37 85 21zm-701-69v-40l-50-25c-27-14-51-25-54-25-2 0-3 21-2 46l1 46 45 19c25 10 48 18 53 18l7 1v-40zm899-5c5-6-52-54-64-55-5 0-31 8-57 18l-48 18 30 32 29 32 53-21c29-11 55-22 57-24zm-1033-91c-6-16-86-68-93-61-2 3-7 23-10 44l-5 39 48 26 49 27 8-31c5-17 6-36 3-44zm1131 39 45-26-18-10c-11-6-25-17-32-24-19-18-27-17-78 13l-45 27 22 23 22 24h19c11 0 40-12 65-27zm-1260-74 12-32-9-17c-9-17-80-75-83-69-1 2-8 20-15 39l-13 35 43 37c24 21 45 38 48 38s11-14 17-31zm1406-27 17-15-30-19c-41-24-49-23-99 14l-43 31 38 23 38 23 30-21c17-12 39-28 49-36zm-732-9c8-9 56-50 108-91l93-75 39-60 40-61 16-55 15-54-4-76-5-76-36-90c-19-49-56-139-80-199l-46-109-12-69-12-69-14 6c-8 3-35 5-59 5h-44v223c0 122-3 294-7 382l-7 160-7-50c-4-27-10-199-14-382l-8-331-55-4-55-3-2 10c-1 6-8 38-14 73l-12 63-71 166-70 167-16 78-16 77 13 63 13 63 31 59 31 58 74 67c41 36 95 85 121 108 25 24 49 43 52 43 4 0 13-8 20-17zm-781-94v-20l-32-34c-17-19-34-35-38-35-3 0-14 16-23 35l-17 36 41 44 42 45 13-26c8-14 14-35 14-45zm1601 19 39-42-31-13c-17-7-36-13-43-13-11 1-90 70-84 74 29 22 55 36 66 36 7 0 31-19 53-42zm-1707-99 18-30-34-49-33-49-22 27c-12 15-22 34-23 42 0 16 56 90 69 90 3 0 15-14 25-31zm1805-15c18-25 31-47 29-49s-22-7-43-10l-40-6-32 43-32 43 27 11c15 7 34 13 43 13l16 1 32-46zM560 2237c0-15-24-65-46-95-5-8-54 43-54 56 0 7 12 34 26 58l27 45 23-22 24-22v-20zm1960 16c17-26 30-50 30-54 0-9-61-18-77-12-11 4-63 84-63 97 0 4 25 9 68 15l12 1 30-47zM487 2073c-8-21-18-47-21-57l-7-19-29 28c-36 34-36 39-10 100l20 47 32-31 31-30-16-38zm2100 46c12-24 22-50 23-56v-13h-81l-23 53-24 52 32 6c46 9 49 7 73-42zM450 1971c0-6-18-78-25-99l-5-13-12 10c-7 6-23 19-36 29l-22 17 16 57 17 57 33-26c19-14 34-28 34-32zm594 25 55-27 53-58 54-58 42-81 43-81 19-77c11-43 20-89 20-104v-28l-47-7c-27-3-57-9-69-11l-20-5-15 43-14 43-47 49-47 49-55-5-56-5-21-19c-12-10-28-33-35-51l-14-32v-81h-75l-43 20-42 19-31 33c-17 18-42 56-55 83l-24 50v132l15 42c30 87 95 153 179 183l51 19 63-5 62-4 54-26zm1182-1 55-27 39-50 40-49 15-51c8-29 15-71 15-94v-43l-21-57-21-57-33-36-33-37-45-22-44-22h-83v112l-39 39-39 39h-89l-34-22-34-23-33-64c-18-36-34-66-35-67-2-2-33 2-70 8l-67 11v17c0 38 43 180 74 245 18 39 53 97 78 130l44 60 43 29c23 16 65 38 94 48l52 19 58-5 58-4 55-27zm402 2c7-15 16-42 19-60l5-33-36 4c-41 5-48 12-64 68-16 55-17 52 25 51l38-2 13-28zm30-135 12-16v-83l-1-8-27 3c-38 5-45 15-57 76l-11 54 35-5 36-5 13-16zm-2298 8c0-5 6-10 14-10s21-6 29-14l14-15-5-53c-2-29-6-54-7-56-3-4-64 29-70 38-3 5-2 34 1 64l7 56h8c5 0 9-4 9-10zm2318-208c2-34 0-62-3-62s-21 7-40 14l-35 15v120l38-13 37-13 3-61zm-2276 24c4-6 8-36 8-65v-55l-12 12c-7 7-22 12-34 12-13 0-26 4-29 10-8 14-14 81-8 106l5 22 31-16c18-8 35-20 39-26zm2266-146c2-19 1-48-3-66l-6-33-34 21-35 20v36c0 21 3 47 6 59l6 22 32-13 31-12 3-34zm-2281 15 22-6 5-29c3-17 8-43 11-58l6-28-35 4c-45 5-53 16-62 81l-7 53 19-5c10-3 29-8 41-12zm1348-116c33-6 74-14 92-20l31-10 6-14 5-15-23-15c-36-24-109-35-276-42l-155-6-97 12c-53 6-114 17-135 24l-38 12v40l53 18 53 17 97 9 97 9 115-4c63-3 142-10 175-15zm911-21 7-10-13-54c-7-30-16-54-19-54s-19 11-35 24l-30 23 13 56 12 55 29-15c16-8 33-19 36-25zm-2215-17c7-7 40-104 36-106-1-1-21 0-44 3l-43 4-15 51c-8 28-15 54-15 58v8l38-6c20-3 40-8 43-12zm2174-131 6-19-22-43c-28-56-25-55-54-28-30 28-31 35-5 94l21 46 24-16c13-9 27-24 30-34zm-1311 25 38-6-6-37c-3-20-20-65-37-99l-32-63-35-27-35-26h-84l-34 19-34 20-22 40c-13 21-23 47-23 57v18l23-8c12-4 39-8 59-7h38l27 20 28 20 24 47 23 47 22-4c11-3 38-8 60-11zm523-34 23-48 33-18 33-17 52 3 52 4v-20c0-11-9-35-20-53l-20-32-32-20-33-20h-94l-35 31-36 31-30 61c-16 34-33 76-36 94l-6 32 38 6c22 3 46 8 54 10 31 6 36 3 57-44zm-340 15c1-1 5-44 8-96s9-111 12-130l7-35 7 55c4 30 7 90 8 133l1 77 18 1c9 0 36 2 58 5l42 6 12-54c12-49 48-134 80-185l14-22-14-28c-8-15-42-55-75-88l-60-60-47-25-48-25-45 25-46 25-56 56c-30 31-63 69-74 86l-19 29 44 86 44 86 8 47 7 47 56-7c31-4 57-8 58-9zm-1002-14c11-8 45-77 45-92v-10h-79l-16 30c-8 16-20 41-25 55l-10 25h38c20 0 42-4 47-8zm2071-148c-3-7-16-31-31-54l-26-41-26 32-27 31 28 53 29 52 29-30 29-31-5-12zm-1979-23 31-49-38-10-38-9-9 6c-5 3-21 27-36 53l-27 47 27 4c16 2 35 5 44 6l16 1 30-49zm1888-120c-8-14-24-37-35-50l-20-23-20 23c-27 33-25 48 11 97l31 43 24-32 23-32-14-26zm-1802-4 35-43-40-12c-21-7-42-10-46-8s-22 25-40 49l-32 46 22 4c13 2 33 5 44 6l22 1 35-43zm1717-90c0-14-77-94-83-86-2 2-9 18-16 36l-13 32 38 45 38 45 18-30c10-16 18-35 18-42zM752 863l37-38-40-19-40-19-39 38c-22 22-40 42-40 46 0 9 42 28 65 28l21 1 36-37zm1496-48c7-14 12-34 12-43l-1-17-43-32c-24-18-45-33-48-33s-8 19-12 42l-7 42 38 33c21 18 41 32 44 33 3 0 11-11 17-25zM880 760l24-18-24-21c-14-11-34-20-45-21h-20l-39 33-39 33 34 21 33 22 26-16c15-8 37-23 50-33zm1254-45c4-20 4-39 1-44-5-9-93-61-101-61-2 0-4 20-4 44v43l38 26c20 14 42 26 48 26l12 1 6-35zM984 694l46-26-29-24c-36-30-42-30-98 2l-45 27 29 23c36 30 41 29 97-2zm1016-23c0-5 3-23 6-40l6-31-53-25c-30-14-59-25-65-25h-10l5 42 6 43 45 22c51 25 60 27 60 14zm-211-18 24-16-34-18c-19-10-44-18-56-19-12 0-39-8-59-17l-36-18-19 24c-10 13-19 29-19 36v13l38 15 37 16h50l51 1 23-17zm-483-9c-3-9-6-26-6-38v-23l-41-41c-22-23-45-42-51-42-16 0-37 32-38 56v20l28 26c30 29 80 57 101 58h13l-6-16zm164-2c18-11 36-24 38-30l3-11-23-15-23-14-67 5-68 6v16c0 9 7 27 16 39l15 22h74l35-18zm-337-11 28-11-21-30-21-30h-18c-17 0-90 26-100 36-3 2 6 16 20 30l24 26 30-5c17-3 43-10 58-16zm722-38c-1-21-3-42-4-46-1-9-130-72-135-66-2 2-1 24 3 48l6 44 65 28c36 16 66 28 67 29 1 0 0-17-2-37zm-274-74-33-27-39-10-39-10-20 5-20 5v18c0 10 3 25 6 34l6 16h18c9 0 37 15 61 34l44 33 24-35 24-36-32-27zm-164 28c1-2-2-20-8-40l-10-37-27 6c-75 17-102 25-107 35l-7 10 24 20 23 20 54-6c30-3 56-7 58-8zm277-24c-4-16-11-34-17-40l-9-13h-48c-25 0-49 3-53 6-14 15 76 72 116 73l17 1-6-27zm-510-37c20-19 36-41 36-49s9-26 21-41l20-26-6-10-6-10h-78l-16 30-15 29v56c0 30 2 55 4 55s20-15 40-34zm691-29c0-31-4-59-8-63l-7-7-40 18-41 18 6 15c3 7 5 21 5 31v17l33 17c17 8 37 14 42 13l10-3v-56zm-459-19 7-8-28-24-29-25-40 1h-40l-18 22c-9 11-17 27-18 35v13l79-3c44-2 83-7 87-11zm319-5c19-9 35-19 35-22-1-3-23-17-49-30l-49-23-63 31-63 30 35 15 34 15 42 1h42l36-17zm-196-34c25-11 51-25 58-30l13-11-10-19c-6-10-20-23-31-29l-20-11-32 19c-18 11-51 26-74 33-24 7-43 15-43 18s12 15 28 28l27 22h20c11 0 40-9 64-20zm-409-20c0-6 9-23 20-39l19-27-19-18-20-18-15 13c-8 7-30 16-48 20l-32 7 38 36c39 38 57 46 57 26zm719-25c18-14 36-35 41-45l10-19-14 6-14 5-31-16-32-16-44 44-44 44 12 12 11 11h74l31-26zm-508-14h20l-6-22c-4-13-15-32-25-42l-19-19-45 17c-24 9-50 24-56 32l-12 14h58l20 15 19 14 13-4c8-3 23-5 33-5zm147-25 7-6-25-20c-28-21-97-45-106-37-3 4 2 20 10 37 9 17 16 34 15 38s-1 11 0 15l1 7 46-14c25-7 49-16 52-20zm222 23c0-4 10-17 23-28l22-21-19-15-20-14h-112l-12 12-11 11 27 33 27 33 38-1c20-1 37-5 37-10zm-625-62 18-13-6-17c-4-9-14-19-23-23l-16-6-26 27-27 27 15 9c21 14 43 12 65-4zm839-14 5-9-30-29-29-28-23 23-22 22 19 15 20 14h27c15 0 30-4 33-8zm-895-37 23-25h-13c-14 0-49 29-49 42 0 15 14 8 39-17zm-24-21 25-25-13-19-14-20-34 36-34 35 15 9c22 14 26 13 55-16zm925 1-23-25h-16l-16 1 30 24c39 32 55 32 25 0zm56-6 6-11-28-29c-31-33-42-36-51-13l-6 15 23 25c25 26 45 31 56 13zM795 1833l7-33-27-10-26-10 6-10c3-5 17-10 31-10h24v-60h10c5 0 13 12 16 26l7 26 33-4 34-4v8c0 4-3 8-8 8-4 0-13 10-20 21l-14 21 11 11c6 6 11 16 11 23v12l-29-11-30-11-22 19-21 20 7-32zm1390 7-17-19-29 15-29 15v-9c0-4 7-17 15-29l14-20-19-18c-28-25-25-32 10-27l30 4 11-28 12-29 10 31 9 32 32 7 31 6-29 15-28 16 4 29c5 34-2 37-27 9zm-917-438c-31-4-59-10-63-14l-7-6 49-9 48-8h410l50 9 49 8-19 11-19 10-220 3c-122 1-247-1-278-4z"/></g><g fill="#401359" transform="matrix(.1 0 0 -.1 0 300)"><path d="M0 1500V0h3000v3000H0V1500zm1415 1323c-4-10-10-28-13-41l-5-23-21-8c-11-5-40-11-63-14l-41-5 5 37c9 58 19 64 117 69l28 2-7-17zm155 8c0-6-4-13-10-16-5-3-10-15-10-25v-19l-19-11-20-10h-101v9c0 6 5 13 10 16 6 3 10 16 10 29 0 33 7 36 77 36h63v-9zm138-4c6 0 12-4 12-8 0-13-29-62-42-70l-13-8-45 5c-25 3-51 8-59 10l-14 4 17 18c9 10 16 23 16 28 0 6 6 16 13 23l12 12 45-7c25-4 51-7 58-7zm-448-51c-11-48-16-54-61-66-22-6-46-13-54-16l-13-5 3 46c2 26 5 48 7 50 6 7 113 32 119 29l7-4-8-34zm566 23c24-6 44-14 44-18s-12-22-28-40l-27-33-45 12c-25 7-51 14-57 16l-13 3 21 36 21 35h20c10 0 39-5 64-11zm-711-63c2-45 0-49-62-79l-53-25v99l53 23c28 13 54 22 56 20s5-19 6-38zm849 12 57-21-23-24c-13-14-30-29-40-34l-16-9-49 21c-26 12-49 23-51 24-5 5 50 65 59 65 4 0 33-10 63-22zm-986-82 2-44-50-31c-59-36-59-36-59-13-1 9-2 30-3 46l-3 30 40 27c22 16 47 28 56 29h16l1-44zm1093 31c13-7 36-21 51-31l27-18-28-24c-36-30-48-30-106 2l-47 27 32 28c36 33 39 34 71 16zM855 2585l6-40-47-37-48-36-13 36c-19 54-17 57 35 95l47 35 7-7c4-3 10-24 13-46zm1371 9c24-19 44-38 44-42-1-4-17-15-37-24l-37-17-30 19c-17 11-40 27-51 35l-20 16 30 24c40 32 50 31 101-11zm-661-61c29-27 78-70 110-97l58-50 38-58 37-59 18-74 18-74-18-83-18-83-55-125c-57-130-98-247-108-313l-6-39-57 4-57 3-6 245c-3 135-7 299-9 365l-3 120-8-86c-5-47-10-211-11-365l-3-279-61-3-61-3-7 51c-8 60-43 159-109 311-25 58-53 132-62 164l-15 59v104l19 61c31 101 87 174 191 252 19 15 53 43 75 62 22 20 44 37 49 37s32-21 61-47zm-830-29c8-20 15-39 15-43 0-3-19-25-41-49l-41-43-19 36c-10 19-19 39-19 44 0 10 72 89 82 90 4 1 15-15 23-35zm1610-14c21-22 37-41 34-43-2-2-20-11-39-19l-34-17-16 9c-8 5-30 24-48 43l-34 35 29 15c15 8 37 15 48 16l21 1 39-40zm-1721-77c3-10 11-26 18-35l12-16-12-24c-7-13-23-37-36-55l-23-32-22 29c-11 16-21 38-21 48v18l32 42c36 47 43 50 52 25zm1823-41 33-44-6-9c-3-5-9-7-14-4s-21 0-36-7l-27-12-43 49-43 50 27 12c15 6 38 11 52 10l24-2 33-43zM548 2267l21-29-26-51c-14-29-27-54-29-56-6-7-53 54-54 70 0 9 12 38 26 63l27 47 7-8c3-4 16-21 28-36zm1975-10c14-24 27-49 29-56l3-13-40-4c-49-4-54-1-88 58l-27 47 22 4c13 2 35 5 50 6l26 1 25-43zM500 2106c0-6-9-33-21-61l-21-51-29 25-29 25v22c0 12 9 42 20 67l21 46 29-31c17-17 30-36 30-42zm2096 2c12-31 20-58 19-60-2-2-23-2-48 0l-44 4-22 52c-11 28-21 54-21 57 0 2 21 5 47 4h47l22-57zm40-118c6-19 14-48 18-63l7-28-41 4c-22 2-43 7-47 11-9 9-42 114-37 119 2 2 23 1 46-2l43-6 11-35zm-2236 31c0-5 9-12 19-16l20-6 6-19 6-18-12-49c-7-26-13-49-14-51s-19 7-39 19l-36 21v17c0 27 31 111 41 111 5 0 9-4 9-9zm644-20 50-25 56-57 56-57 46-90 46-89 22-97 23-97-9-9c-5-4-38-11-74-14l-65-7-29 62-30 62-40 29-41 30-41-5-42-4-25-19c-14-11-32-32-39-49l-12-30-1-45v-45l-23-3c-12-2-44 4-71 13l-48 16-41 35-41 35-25 52-25 52-7 52-6 52 21 70 21 71 54 54 53 54 49 16 49 16 70-3 70-2 49-24zm1182 1c23-12 59-39 80-61l38-41 23-56 23-57v-126l-23-53-24-53-43-42-42-43-51-15c-28-8-61-15-74-15h-23v91l-14 34-15 35-33 20-33 21-45-4-45-5-40-45-41-44-14-43-14-42-65 7c-36 4-69 9-73 12-13 7-9 45 12 128l20 79 41 84 40 83 67 68 67 68 55 22 55 21 75-3 75-4 41-21zm425-127 17-10 7-62 7-61-36 12c-20 7-41 17-47 23-10 10-29 110-22 117 5 5 55-7 74-19zm-2273-11c43-21 45-26 37-93l-7-58-39 19-39 18v34c0 32 10 96 15 96 1 0 16-7 33-16zm2287-139 20-12v-118l-10 1c-6 0-25 6-42 13l-33 13v18c0 9-3 38-6 64l-7 47 29-7c16-3 38-12 49-19zm-2312-7c12-6 29-14 37-18l15-7 3-61 3-61-33 11c-18 6-39 15-45 21l-13 9v59c0 33 2 59 5 59s15-5 28-12zm2278-125c19-9 37-21 41-27l8-11-6-35c-3-19-7-45-10-57l-4-21-29 14c-16 8-33 20-38 27l-9 12 4 58c2 31 5 57 6 57 2 0 18-8 37-17zm-2222-49c5-5 12-36 16-69l7-59-14 11c-7 6-26 13-43 15l-29 3-7 25c-4 14-7 44-8 66l-1 42 35-12c20-7 39-17 44-22zm2241-144c0-31-18-98-29-104-4-3-22 8-40 25l-32 29 5 18c3 9 10 36 16 59l10 42 35-22 34-22 1-25zm-895 39c33-6 72-17 87-25l28-15v-30l-34-14c-53-23-161-37-301-40l-130-3-99 14c-109 15-163 31-170 51l-5 12 15 15c20 20 79 36 178 46l81 9 145-4c80-3 172-10 205-16zm-1352-28c4 0 13-1 21-1h15l15-54c9-30 16-56 16-59s-19-5-42-4l-43 2-12 25c-7 14-15 45-19 68l-7 43 24-10c13-5 27-9 32-10zm2207-153c0-19-24-72-42-95l-10-13-29 36-28 36 27 54 26 54 28-27 28-27v-18zm-1276 32 8-8-21-65-22-66-30-41c-16-22-44-49-62-60l-32-20h-72l-33 23c-41 27-67 62-79 105l-10 32 52-6 52-6 36 15 36 15 24 51 24 51 60-6c33-4 64-10 69-14zm472 3c12-39 34-69 65-91l34-24 58 6 57 6-6-28c-13-55-57-105-109-122l-36-12-35 6-34 7-35 36c-42 44-85 127-92 182l-5 40 43 4c24 2 54 4 67 5l23 2 5-17zm-151-59c17-65 47-135 76-175l18-26-21-34c-44-73-147-168-206-190l-24-9-58 35-58 36-49 52c-26 30-55 66-63 81l-14 27 13 22c38 59 71 136 82 184l12 54 61-3 61-3 5-117c3-64 8-120 13-124l7-7v44c0 24 3 81 7 126l6 82 56 3c31 2 57 3 59 2 1-1 9-28 17-60zm-1176 30c5-5 18-30 29-56l21-48h-13c-8 0-28-3-45-6l-31-6-25 53c-14 30-25 59-25 65v11l41-2c22-1 44-6 48-11zm2071-141c0-7-14-35-31-63l-31-51-24 33c-30 40-30 49 2 104l27 45 28-27c16-15 29-34 29-41zm-1981-28c34-51 38-65 17-65-7 0-27-3-44-6l-31-6-30 48c-17 27-31 54-31 60v11l44 1 45 2 30-45zm1868-31-6-7 20-28 20-29-6-17c-3-10-20-35-38-55l-32-38-22 39-22 38 36 52c20 28 40 51 46 51h10l-6-6zM655 974c20-25 36-46 34-48-16-10-63-26-77-26l-17 1-34 45c-19 24-32 46-30 47 13 10 57 26 70 26l17 1 37-46zm1700-54c8-16 15-37 15-47v-19l-40-39c-22-21-41-37-43-34-10 13-27 62-27 77v16l37 38c20 21 38 38 40 38 1 0 9-13 18-30zM763 859l36-32-34-18c-19-11-41-19-49-19-16 0-85 69-86 85 0 6 15 15 33 21l32 11 16-8c9-4 32-23 52-40zm1497-85v-21l-39-31c-22-18-43-32-48-32-10 0-29 60-25 80 2 8 22 29 45 46l42 32 12-27c7-14 12-35 13-47zM840 793c14-9 31-23 38-30s18-13 25-13h11l-34-30c-18-16-38-30-44-30-15 0-98 67-95 77 2 10 50 41 64 42 6 1 22-7 35-16zm1294-64c3-17 6-39 6-48v-16l-45-28c-25-15-51-27-58-27h-12v93l11 4c5 2 26 14 45 28 44 31 45 31 53-6zm-1130-90c-21-16-40-28-43-27-3 2-30 16-60 31l-53 29 8 7c5 4 22 17 37 29l29 21 60-30 59-30-37-30zm1004 6 2-45-23-15c-12-8-42-21-66-30l-43-15 6 31c3 17 6 40 6 50v18l53 25c28 13 54 25 57 25 3 1 7-19 8-44zm-233 21 35-15v-22l-46-19c-25-11-56-20-69-20h-23l-12-15c-18-21-32-18-53 11l-18 25 3 17 3 16 45 18c56 21 91 22 135 4zm-472-43-6-48-44-45-45-45-24 30c-29 37-30 45-2 80l21 28 51 23c28 13 52 24 53 24 2 0 0-21-4-47zm172 18c16-10 31-24 33-32l2-14-20-13-21-13-70 7-69 7v43l20 22 20 21 37-6c21-3 51-13 68-22zm-352-4 47-22-30-32c-17-18-35-33-39-33-8 0-102 39-110 46-6 5 60 64 72 63 7 0 33-10 60-22zm743-23c-3-9-6-29-6-45v-30l-62-29c-35-17-71-30-81-30h-18l11 19c5 11 10 31 10 45v25l12 8c22 14 112 51 127 52l13 1-6-16zm-273-31 26-36-42-33-42-34-42-6c-24-3-50-3-59 0l-16 6 6 26 7 26-11-7-10-6v-52l-42 7c-24 4-58 11-75 17l-33 11v13c0 7 11 22 25 33l24 19 56-9c31-5 60-9 63-10 4-1 23 3 43 10l36 13 23 24c13 14 26 25 30 25s19-16 33-37zm104-60-6-36-13-9c-7-4-37-8-65-8h-53v8c0 18 99 78 134 81l9 1-6-37zm-532-14 7-20 24-11 24-11v-17c0-10 11-34 25-54l25-37-26-9c-14-6-36-10-49-10h-24l-12 22c-7 13-16 38-20 58l-8 35 6 38c6 41 18 48 28 16zm721-25 7-36-17-34-16-34-40 20-39 20 1 35 1 34 36 15c20 8 41 15 48 15l12 1 7-36zm-513-33c52-12 55-17 24-49l-26-27-46 3-45 4-20 28c-11 15-20 30-20 33 0 16 79 20 133 8zm373-17c19-9 34-19 34-23-1-8-93-51-110-51-20 0-120 51-120 61 0 16 43 28 103 28l59 1 34-16zm-188-41 52-24v-12c0-16-41-57-58-57-8 0-30 10-49 21-19 12-36 19-39 16s4-8 15-12c12-3 21-10 21-15 0-14-67-51-105-57l-35-6v16c0 9 5 19 10 22l10 6v61l38-6 37-6-34 15c-37 17-37 17 11 51l33 23 20-5c11-3 44-17 73-31zm-418-25c6-13 15-30 22-40l12-16-13-16c-17-20-40-20-65-1-11 8-28 15-38 15s-18 3-18 7c0 13 64 73 77 73h13l10-22zm690 5c28-20 69-64 70-75 0-5-12-8-27-8h-26l-17-15-16-15-47 45c-26 25-47 49-47 53 0 12 40 30 65 31 11 1 32-7 45-16zm-470-47c0-12-7-32-16-44l-15-22h-25c-14 0-43 9-64 20l-40 20v25l32 2 32 2 13 14 13 13 35-4 35-4v-22zm369-7 22-30-11-14-12-14-42-6-42-7-39 16-38 16 34 35 34 35h71l23-31zm-635-44 20-15-23-24-23-25-29 21-29 22v36h33l32-1 19-14zm822-10 19-15-28-25c-34-30-39-31-63-4l-19 21 24 19c28 23 41 24 67 4zm-886-40 23-25-6-7-7-7-33 30-32 29 28-31 29-32-11-21c-16-29-24-27-56 16l-28 36 22 19c31 24 43 23 71-7zm935-17c3 1 10 2 15 2h10v-36l-28-27c-34-32-38-33-53-6l-11 21 24 26 23 27-27-24-28-24-7 6-7 7 30 31 29 30 13-18c7-10 15-17 17-15zM796 1833l6-31-27-15-28-14 32-6 31-6v-20c0-11 4-22 9-25l8-5 11 23 10 24 29-6 28-5-19 22-19 21 11 25c13 28 10 30-20 14l-20-11-24 23-24 23 6-31zm1393 2-17-17-22 12c-28 15-35 8-20-20l12-22-18-19-17-19h52l15-27 15-28 1 28v28l33 14 32 14-22 7-22 6-3 30-3 29-16-16zm-872-435c-95-8-140-19-81-21 16 0 38-3 49-5 11-3 97-6 190-7l170-2 80 9 80 9-35 8c-19 4-107 10-195 12l-160 5-98-8z"/></g></g></svg>